HIERARCHY
ROOT Hips
{
	OFFSET 0.000000 100.481300 0.000000
	CHANNELS 6 Xposition Yposition Zposition Xrotation Yrotation Zrotation
	JOINT Spine
	{
		OFFSET -0.279200 12.230698 -2.892100
		CHANNELS 3 Xrotation Yrotation Zrotation
		JOINT Spine1
		{
			OFFSET -0.325700 14.269203 -3.374200
			CHANNELS 3 Xrotation Yrotation Zrotation
			JOINT Spine2
			{
				OFFSET -0.372300 16.307602 -0.352600
				CHANNELS 3 Xrotation Yrotation Zrotation
				JOINT Neck
				{
					OFFSET -0.418800 17.814194 8.416900
					CHANNELS 3 Xrotation Yrotation Zrotation
					JOINT Head
					{
						OFFSET 0.000000 7.031097 3.806800
						CHANNELS 3 Xrotation Yrotation Zrotation
						JOINT HeadTop_End
						{
							OFFSET 0.000000 24.646606 12.978600
							CHANNELS 3 Xrotation Yrotation Zrotation
							End Site
							{
								OFFSET 0.000000 27.854965 0.000000
							}
						}
					}
				}
				JOINT LeftShoulder
				{
					OFFSET 16.952999 14.495407 -7.737500
					CHANNELS 3 Xrotation Yrotation Zrotation
					JOINT LeftArm
					{
						OFFSET 9.308998 -2.777710 0.208600
						CHANNELS 3 Xrotation Yrotation Zrotation
						JOINT LeftForeArm
						{
							OFFSET 29.972298 0.000000 0.000000
							CHANNELS 3 Xrotation Yrotation Zrotation
							JOINT LeftHand
							{
								OFFSET 26.026505 0.000000 0.000000
								CHANNELS 3 Xrotation Yrotation Zrotation
								JOINT LeftHandThumb1
								{
									OFFSET 12.240501 -7.147949 9.207150
									CHANNELS 3 Xrotation Yrotation Zrotation
									JOINT LeftHandThumb2
									{
										OFFSET 4.138618 -2.389435 2.389433
										CHANNELS 3 Xrotation Yrotation Zrotation
										JOINT LeftHandThumb3
										{
											OFFSET 2.726913 -1.574387 1.574386
											CHANNELS 3 Xrotation Yrotation Zrotation
											JOINT LeftHandThumb4
											{
												OFFSET 3.941010 -2.275345 2.275342
												CHANNELS 3 Xrotation Yrotation Zrotation
												End Site
												{
													OFFSET -0.005798 5.087799 0.009903
												}
											}
										}
									}
								}
								JOINT LeftHandIndex1
								{
									OFFSET 24.424698 -1.985611 5.953459
									CHANNELS 3 Xrotation Yrotation Zrotation
									JOINT LeftHandIndex2
									{
										OFFSET 6.426697 0.000000 0.000000
										CHANNELS 3 Xrotation Yrotation Zrotation
										JOINT LeftHandIndex3
										{
											OFFSET 5.337898 0.000000 0.000000
											CHANNELS 3 Xrotation Yrotation Zrotation
											JOINT LeftHandIndex4
											{
												OFFSET 4.409401 0.000000 0.000000
												CHANNELS 3 Xrotation Yrotation Zrotation
												End Site
												{
													OFFSET 0.000000 4.409363 0.014373
												}
											}
										}
									}
								}
								JOINT LeftHandMiddle1
								{
									OFFSET 23.810104 0.000000 0.000000
									CHANNELS 3 Xrotation Yrotation Zrotation
									JOINT LeftHandMiddle2
									{
										OFFSET 7.176498 0.000000 0.000000
										CHANNELS 3 Xrotation Yrotation Zrotation
										JOINT LeftHandMiddle3
										{
											OFFSET 6.774902 0.000000 0.000000
											CHANNELS 3 Xrotation Yrotation Zrotation
											JOINT LeftHandMiddle4
											{
												OFFSET 5.403328 0.000000 0.000000
												CHANNELS 3 Xrotation Yrotation Zrotation
												End Site
												{
													OFFSET -0.027702 5.403244 0.017414
												}
											}
										}
									}
								}
								JOINT LeftHandRing1
								{
									OFFSET 22.908401 -0.839279 -6.020567
									CHANNELS 3 Xrotation Yrotation Zrotation
									JOINT LeftHandRing2
									{
										OFFSET 6.337502 0.000000 0.000000
										CHANNELS 3 Xrotation Yrotation Zrotation
										JOINT LeftHandRing3
										{
											OFFSET 5.779297 0.000000 0.000000
											CHANNELS 3 Xrotation Yrotation Zrotation
											JOINT LeftHandRing4
											{
												OFFSET 4.965698 0.000000 0.000000
												CHANNELS 3 Xrotation Yrotation Zrotation
												End Site
												{
													OFFSET 0.000000 4.965668 0.016186
												}
											}
										}
									}
								}
								JOINT LeftHandPinky1
								{
									OFFSET 20.037003 -1.530319 -10.950146
									CHANNELS 3 Xrotation Yrotation Zrotation
									JOINT LeftHandPinky2
									{
										OFFSET 5.254700 0.000000 0.000000
										CHANNELS 3 Xrotation Yrotation Zrotation
										JOINT LeftHandPinky3
										{
											OFFSET 4.810204 0.000000 0.000000
											CHANNELS 3 Xrotation Yrotation Zrotation
											JOINT LeftHandPinky4
											{
												OFFSET 3.647202 0.000000 0.000000
												CHANNELS 3 Xrotation Yrotation Zrotation
												End Site
												{
													OFFSET 0.000000 3.647186 0.011889
												}
											}
										}
									}
								}
							}
						}
					}
				}
				JOINT RightShoulder
				{
					OFFSET -15.141001 14.495407 -7.737500
					CHANNELS 3 Xrotation Yrotation Zrotation
					JOINT RightArm
					{
						OFFSET -9.308998 -2.777710 0.208500
						CHANNELS 3 Xrotation Yrotation Zrotation
						JOINT RightForeArm
						{
							OFFSET -29.972300 0.000000 0.000000
							CHANNELS 3 Xrotation Yrotation Zrotation
							JOINT RightHand
							{
								OFFSET -26.026505 0.000000 0.000000
								CHANNELS 3 Xrotation Yrotation Zrotation
								JOINT RightHandThumb1
								{
									OFFSET -12.240601 -7.148026 9.207092
									CHANNELS 3 Xrotation Yrotation Zrotation
									JOINT RightHandThumb2
									{
										OFFSET -4.138618 -2.389435 2.389433
										CHANNELS 3 Xrotation Yrotation Zrotation
										JOINT RightHandThumb3
										{
											OFFSET -2.726974 -1.574417 1.574421
											CHANNELS 3 Xrotation Yrotation Zrotation
											JOINT RightHandThumb4
											{
												OFFSET -3.941010 -2.275345 2.275343
												CHANNELS 3 Xrotation Yrotation Zrotation
												End Site
												{
													OFFSET 0.005814 5.087799 0.009927
												}
											}
										}
									}
								}
								JOINT RightHandIndex1
								{
									OFFSET -24.424698 -1.985657 5.953444
									CHANNELS 3 Xrotation Yrotation Zrotation
									JOINT RightHandIndex2
									{
										OFFSET -6.426697 0.000000 0.000000
										CHANNELS 3 Xrotation Yrotation Zrotation
										JOINT RightHandIndex3
										{
											OFFSET -5.337898 0.000000 0.000000
											CHANNELS 3 Xrotation Yrotation Zrotation
											JOINT RightHandIndex4
											{
												OFFSET -4.409401 0.000000 0.000000
												CHANNELS 3 Xrotation Yrotation Zrotation
												End Site
												{
													OFFSET 0.000000 4.409363 0.014408
												}
											}
										}
									}
								}
								JOINT RightHandMiddle1
								{
									OFFSET -23.810097 0.000000 0.000000
									CHANNELS 3 Xrotation Yrotation Zrotation
									JOINT RightHandMiddle2
									{
										OFFSET -7.176498 0.000000 0.000000
										CHANNELS 3 Xrotation Yrotation Zrotation
										JOINT RightHandMiddle3
										{
											OFFSET -6.774902 0.000000 0.000000
											CHANNELS 3 Xrotation Yrotation Zrotation
											JOINT RightHandMiddle4
											{
												OFFSET -5.403328 0.000000 0.000000
												CHANNELS 3 Xrotation Yrotation Zrotation
												End Site
												{
													OFFSET 0.027702 5.403244 0.017457
												}
											}
										}
									}
								}
								JOINT RightHandRing1
								{
									OFFSET -22.908302 -0.839325 -6.020576
									CHANNELS 3 Xrotation Yrotation Zrotation
									JOINT RightHandRing2
									{
										OFFSET -6.337502 0.000000 0.000000
										CHANNELS 3 Xrotation Yrotation Zrotation
										JOINT RightHandRing3
										{
											OFFSET -5.779297 0.000000 0.000000
											CHANNELS 3 Xrotation Yrotation Zrotation
											JOINT RightHandRing4
											{
												OFFSET -4.965698 0.000000 0.000000
												CHANNELS 3 Xrotation Yrotation Zrotation
												End Site
												{
													OFFSET 0.000000 4.965668 0.016226
												}
											}
										}
									}
								}
								JOINT RightHandPinky1
								{
									OFFSET -20.037003 -1.530334 -10.950259
									CHANNELS 3 Xrotation Yrotation Zrotation
									JOINT RightHandPinky2
									{
										OFFSET -5.254700 0.000000 0.000000
										CHANNELS 3 Xrotation Yrotation Zrotation
										JOINT RightHandPinky3
										{
											OFFSET -4.810204 0.000000 0.000000
											CHANNELS 3 Xrotation Yrotation Zrotation
											JOINT RightHandPinky4
											{
												OFFSET -3.647202 0.000000 0.000000
												CHANNELS 3 Xrotation Yrotation Zrotation
												End Site
												{
													OFFSET 0.000000 3.647186 0.011917
												}
											}
										}
									}
								}
							}
						}
					}
				}
			}
		}
	}
	JOINT LeftUpLeg
	{
		OFFSET 15.427100 -6.655098 0.678600
		CHANNELS 3 Xrotation Yrotation Zrotation
		JOINT LeftLeg
		{
			OFFSET 4.081073 -39.591068 13.024000
			CHANNELS 3 Xrotation Yrotation Zrotation
			JOINT LeftFoot
			{
				OFFSET -4.081074 -37.707932 -15.979700
				CHANNELS 3 Xrotation Yrotation Zrotation
				JOINT LeftToeBase
				{
					OFFSET 5.346399 -15.068900 20.645000
					CHANNELS 3 Xrotation Yrotation Zrotation
					JOINT LeftToe_End
					{
						OFFSET 2.754700 0.931300 11.300900
						CHANNELS 3 Xrotation Yrotation Zrotation
						End Site
						{
							OFFSET 0.000000 11.669021 0.000000
						}
					}
				}
			}
		}
	}
	JOINT RightUpLeg
	{
		OFFSET -15.569500 -6.655098 0.678600
		CHANNELS 3 Xrotation Yrotation Zrotation
		JOINT RightLeg
		{
			OFFSET -4.081825 -39.591045 13.023800
			CHANNELS 3 Xrotation Yrotation Zrotation
			JOINT RightFoot
			{
				OFFSET 4.081824 -37.707954 -15.979600
				CHANNELS 3 Xrotation Yrotation Zrotation
				JOINT RightToeBase
				{
					OFFSET -5.346400 -15.068900 20.645000
					CHANNELS 3 Xrotation Yrotation Zrotation
					JOINT RightToe_End
					{
						OFFSET -2.754700 0.931300 11.300900
						CHANNELS 3 Xrotation Yrotation Zrotation
						End Site
						{
							OFFSET 0.000000 11.669021 0.000000
						}
					}
				}
			}
		}
	}
}
MOTION
Frames: 4
Frame Time: 0.033333
9.718355 74.315117 -3.281139 17.891474 -16.523237 2.457039 11.361467 -4.147643 -0.851294 9.207725 -2.667717 0.398420 9.261999 -2.442261 0.353747 -2.920736 0.989367 -1.881813 -52.711135 1.150100 4.405196 -0.000000 0.000000 -0.000000 0.882810 1.216418 -6.998565 -15.985344 -14.485110 -46.860166 -0.000274 -82.289067 -0.000275 37.202463 -2.439709 33.854400 -1.540037 3.690202 6.142357 3.939051 7.948712 0.746814 -0.579468 1.574984 2.538710 0.000001 0.000001 0.000000 0.030197 0.645528 -5.357204 0.030209 0.645538 -5.357201 0.007551 0.323115 -2.678522 -0.000000 -0.000001 -0.000002 0.030015 0.643616 -5.341221 0.030381 0.647456 -5.373184 0.007554 0.323122 -2.678522 -0.000000 0.000001 -0.000001 0.030197 0.645528 -5.357205 0.030206 0.645535 -5.357201 0.007557 0.323124 -2.678516 -0.000002 -0.000001 -0.000001 0.391655 4.683724 -4.863592 0.017927 -3.409000 -5.865753 0.007554 0.323122 -2.678515 0.000001 0.000002 0.000001 1.459506 0.843551 6.280941 -17.736015 32.016525 70.152449 -0.000343 90.998843 0.000344 8.989650 0.281885 -5.918248 -1.833969 1.232130 -5.841852 6.457567 -29.915587 -1.510355 -0.344205 -10.474491 -3.184837 0.000000 0.000001 -0.000003 0.010378 -0.380579 3.124508 0.000000 -0.000001 0.000015 -0.000001 -0.000000 0.000001 -0.000000 0.000001 -0.000001 0.010379 -0.380579 3.124508 -0.000000 -0.000003 0.000003 0.000001 -0.000008 0.000001 -0.000001 0.000001 0.000000 0.010376 -0.380579 3.124508 -0.000005 -0.000005 0.000015 -0.000001 0.000000 0.000001 0.000001 0.000000 -0.000000 0.010378 -0.380579 3.124508 -0.000000 0.000001 0.000001 0.000001 -0.000002 -0.000000 0.000000 -0.000002 0.000001 -58.533738 -5.903835 32.703448 51.081175 -8.615108 -1.172527 -8.123259 4.904855 -27.455617 -1.186655 0.000002 0.000004 0.000000 0.000000 0.000001 -55.433494 -2.973996 -28.814676 52.250278 11.805526 2.525522 -15.490063 -1.669711 25.203439 -1.221029 -0.000020 0.000003 0.000000 -0.000001 0.000000 
9.925583 74.573929 -3.429384 17.484270 -16.943269 2.409754 11.231046 -3.794996 -0.970266 9.085489 -2.406434 0.292403 9.134235 -2.184597 0.249159 -3.010043 0.918377 -1.685725 -52.103309 1.041246 4.167331 0.000000 -0.000001 0.000000 0.896572 1.170166 -7.048392 -15.510905 -15.250629 -47.085412 0.000472 -81.999658 0.000490 37.044890 -1.827927 32.259718 -1.540032 3.690206 6.142356 3.939051 7.948712 0.746814 -0.579465 1.574985 2.538710 0.000001 -0.000000 0.000000 0.030199 0.645531 -5.357204 0.030209 0.645532 -5.357198 0.007548 0.323112 -2.678520 -0.000004 -0.000003 0.000001 0.030016 0.643615 -5.341219 0.030381 0.647455 -5.373186 0.007552 0.323122 -2.678521 -0.000002 0.000000 -0.000001 0.030199 0.645531 -5.357203 0.030209 0.645534 -5.357201 0.007559 0.323123 -2.678514 -0.000001 -0.000000 0.000000 0.391659 4.683726 -4.863591 0.017928 -3.409000 -5.865753 0.007554 0.323121 -2.678512 -0.000003 -0.000001 0.000000 1.405280 0.625393 6.388053 -17.500157 31.775205 70.388610 0.054095 90.574688 -0.054102 10.475492 0.216445 -5.904962 -1.833968 1.232131 -5.841851 6.457565 -29.915580 -1.510358 -0.344205 -10.474498 -3.184834 -0.000001 0.000000 0.000000 0.010382 -0.380570 3.124509 0.000002 -0.000002 0.000001 -0.000001 -0.000001 0.000001 0.000000 -0.000001 -0.000000 0.010383 -0.380570 3.124509 0.000000 -0.000000 0.000000 0.000004 0.000001 -0.000003 -0.000001 0.000002 -0.000001 0.010381 -0.380572 3.124507 -0.000001 0.000000 0.000003 -0.000000 -0.000001 -0.000001 -0.000000 -0.000002 0.000000 0.010382 -0.380570 3.124509 0.000004 0.000004 0.000021 -0.000000 -0.000000 -0.000000 -0.000001 -0.000000 0.000001 -57.840391 -5.215006 32.774950 50.614468 -8.687370 -1.086736 -8.623117 4.989154 -27.265821 -0.541843 -0.000000 -0.000005 0.000000 -0.000000 0.000000 -54.776731 -3.105943 -28.050387 51.855858 11.549527 2.000412 -15.970048 -2.077352 25.088968 -0.404965 -0.000003 0.000009 0.000000 0.000000 0.000001 
10.168427 75.017883 -3.594807 17.030701 -17.278215 2.373495 11.152548 -3.440638 -1.138026 9.002837 -2.137678 0.161022 9.045962 -1.919720 0.119107 -3.139654 0.814469 -1.441187 -51.535109 0.844428 3.842458 0.000000 0.000002 0.000000 0.912865 1.108331 -7.085535 -15.189665 -16.046920 -47.624023 0.000231 -81.387496 0.000236 36.979211 -1.360106 30.652161 -1.540035 3.690204 6.142355 3.939050 7.948714 0.746814 -0.579466 1.574985 2.538710 0.000001 0.000000 0.000000 0.030200 0.645530 -5.357202 0.030207 0.645534 -5.357201 0.007549 0.323113 -2.678517 0.000001 0.000002 0.000000 0.030018 0.643618 -5.341217 0.030381 0.647457 -5.373187 0.007550 0.323118 -2.678521 0.000001 -0.000001 -0.000000 0.030200 0.645530 -5.357200 0.030204 0.645533 -5.357202 0.007561 0.323123 -2.678516 -0.000001 0.000002 0.000001 0.391657 4.683724 -4.863589 0.017929 -3.409002 -5.865758 0.007555 0.323124 -2.678513 0.000001 0.000000 -0.000001 1.333524 0.304544 6.553875 -17.252317 31.419007 70.663047 9.810184 90.017235 -9.813255 12.153925 0.444051 -5.931196 -1.833966 1.232130 -5.841852 6.457567 -29.915580 -1.510357 -0.344204 -10.474496 -3.184839 -0.000001 -0.000002 0.000001 0.010375 -0.380580 3.124511 0.000004 0.000004 0.000009 -0.000004 0.000000 0.000001 -0.000002 0.000000 0.000000 0.010376 -0.380580 3.124511 0.000002 -0.000002 0.000001 0.000005 0.000005 0.000004 0.000001 0.000000 -0.000000 0.010372 -0.380578 3.124510 0.000010 0.000001 0.000008 0.000001 -0.000002 0.000001 0.000001 -0.000002 -0.000000 0.010375 -0.380580 3.124511 0.000001 -0.000002 0.000001 -0.000004 0.000002 0.000006 -0.000001 0.000001 0.000001 -57.067559 -4.564574 32.723235 49.922782 -8.608536 -1.136158 -8.556687 4.910001 -26.898627 -0.204580 -0.000003 0.000003 -0.000000 0.000000 0.000000 -53.997112 -3.079622 -27.314765 51.298870 10.993000 1.472348 -15.806902 -2.359689 25.076874 0.070660 0.000022 0.000004 0.000000 -0.000001 0.000000 
10.465559 75.635727 -3.784748 16.520834 -17.528478 2.351124 11.161738 -3.108858 -1.325296 8.988366 -1.880383 0.024144 9.026479 -1.668996 -0.016188 -3.366802 0.710040 -1.291091 -51.059929 0.596709 3.507619 0.000001 -0.000001 -0.000000 0.915611 1.156617 -7.292117 -14.878529 -16.937240 -48.253405 -0.000173 -80.752480 -0.000192 37.109603 -1.031479 29.139359 -1.540032 3.690206 6.142357 3.939052 7.948717 0.746815 -0.579470 1.574984 2.538711 -0.000001 -0.000000 0.000001 0.030198 0.645528 -5.357203 0.030209 0.645536 -5.357200 0.007553 0.323110 -2.678519 0.000000 0.000000 -0.000000 0.030018 0.643614 -5.341221 0.030383 0.647457 -5.373183 0.007550 0.323121 -2.678519 0.000003 -0.000000 -0.000000 0.030198 0.645528 -5.357203 0.030208 0.645538 -5.357199 0.007557 0.323124 -2.678517 0.000001 -0.000002 -0.000001 0.391660 4.683725 -4.863591 0.017925 -3.409001 -5.865757 0.007557 0.323122 -2.678514 0.000001 -0.000001 -0.000002 1.252320 -0.106518 6.758653 -16.965934 30.962043 71.004017 0.001914 89.450596 -0.002112 13.926714 0.804580 -6.089036 -1.833971 1.232129 -5.841853 6.457564 -29.915583 -1.510358 -0.344204 -10.474491 -3.184839 0.000000 -0.000001 0.000002 0.010372 -0.380580 3.124519 0.000013 -0.000008 -0.000005 -0.000002 0.000002 0.000000 -0.000001 0.000004 -0.000001 0.010373 -0.380580 3.124520 0.000009 -0.000006 -0.000007 0.000003 0.000003 -0.000007 0.000002 -0.000000 -0.000001 0.010374 -0.380578 3.124517 0.000010 -0.000008 -0.000004 0.000002 -0.000001 0.000001 0.000000 -0.000000 -0.000000 0.010372 -0.380580 3.124520 0.000000 -0.000006 0.000004 -0.000002 0.000000 -0.000001 0.000002 0.000001 -0.000001 -56.220096 -3.990424 32.546534 49.040058 -8.360824 -1.342246 -7.890958 4.665672 -26.336666 -0.206534 0.000001 -0.000004 0.000000 -0.000000 -0.000000 -53.109464 -2.826801 -26.585185 50.590306 10.154063 0.884409 -14.928785 -2.516272 25.266512 0.197537 -0.000007 -0.000001 -0.000000 -0.000000 -0.000000 
